<svg xmlns="http://www.w3.org/2000/svg" width="72" height="72" fill="none"><g clip-path="url(#a)"><rect width="72" height="72" fill="#8FADF4" rx="4"/><path fill="#6569BD" d="M18 13.5h54V54H18z"/><path fill="#FDFBF5" d="M9 13.5h54V45H9z"/><path fill="#17D1C6" d="M18 18h36v9H18z"/><path fill="#404492" d="M9 4.5h54v9H9z"/><path fill="#FDFBF5" d="m60.974 11.025-4.5-4.5-.45.45 4.5 4.5.45-.45z"/><path fill="#FDFBF5" d="m56.475 11.475 4.5-4.5-.45-.45-4.5 4.5.45.45z"/><path fill="#FF7D6A" d="M49.5 34.2a4.5 4.5 0 0 1 4.5 4.5v22.5h-9V38.7a4.5 4.5 0 0 1 4.5-4.5zm-9 0a4.5 4.5 0 0 1 4.5 4.5v22.5h-9V38.7a4.5 4.5 0 0 1 4.5-4.5zm-9-13.5a4.5 4.5 0 0 1 4.5 4.5v36h-9v-36a4.5 4.5 0 0 1 4.5-4.5zM27 61.2h27v18H27z"/><path stroke="#BC371C" stroke-width=".45" d="M36 38.7v4.5m9-4.5v4.5"/><path fill="#FF7D6A" d="M27 61.2v-18c-2.74 1.8-4.5 5.17-4.5 9s1.755 7.193 4.5 9z"/><path fill="#FDFBF5" d="M16.727 61.727 13.5 63l3.227 1.273L18 67.5l1.273-3.227L22.5 63l-3.227-1.273L18 58.5l-1.273 3.227zm-9-9L4.5 54l3.227 1.273L9 58.5l1.273-3.227L13.5 54l-3.227-1.273L9 49.5l-1.273 3.227z"/></g><defs><clipPath id="a"><rect width="72" height="72" fill="#fff" rx="4"/></clipPath></defs></svg>