<svg xmlns="http://www.w3.org/2000/svg" width="72" height="72" fill="none"><rect width="72" height="72" fill="#B07CC6" rx="4"/><path fill="#C39BD3" d="M72 36c0-9.941-8.059-18-18-18s-18 8.059-18 18v36h36V36zM36 18c0-9.941-8.059-18-18-18S0 8.059 0 18v54h36V18z"/><path fill="#4EDCD3" d="M19.273 21.227 22.5 22.5l-3.227 1.273L18 27l-1.273-3.227L13.5 22.5l3.227-1.273L18 18l1.273 3.227z"/><path fill="#AEEFEB" d="M41.773 16.727 45 18l-3.227 1.273L40.5 22.5l-1.273-3.227L36 18l3.227-1.273L40.5 13.5l1.273 3.227z"/><path fill="#80E6E0" d="m29.358 9.34 4.841 1.91-4.84 1.91-1.91 4.84-1.909-4.84-4.84-1.91 4.84-1.91 1.91-4.84 1.908 4.84z"/><path fill="#353777" d="m20.7 29.764 6.363-6.364 38.184 38.184-6.364 6.364z"/><path fill="#FAF6E7" d="m20.7 29.764 6.363-6.364 6.364 6.364-6.364 6.364z"/></svg>