<svg xmlns="http://www.w3.org/2000/svg" width="72" height="72" fill="none"><g clip-path="url(#a)"><rect width="72" height="72" fill="#503259" rx="4"/><path fill="#6569BD" d="M36 36H0V0h36z"/><path fill="#FAF6E7" d="M9 72V27h40.5v45z"/><path fill="#4EDCD3" d="M40.5 54V9H72v45z"/><path fill="#353777" d="M36 57.6H18v1.8h18v-1.8z"/><mask id="b" width="13" height="14" x="27" y="46" maskUnits="userSpaceOnUse" style="mask-type:alpha"><path fill="#FAF6E7" d="M27.066 59.366V46.638h12.728v12.728z"/></mask><g mask="url(#b)"><path fill="#FFE6A7" d="M27.067 59.366V46.638h12.728v12.728z"/><path fill="#353777" d="m20.701 53.002 3.182-3.182 12.728 12.728-3.182 3.182z"/></g><path fill="#648EEF" d="m27.063 46.638 19.092-19.092 12.728 12.728L39.79 59.366z"/><path fill="#4C50AE" d="m46.154 27.546 3.182-3.182 12.728 12.728-3.182 3.182z"/><path fill="#FF7D6A" d="M49.337 24.364c3.521-3.52 9.233-3.495 12.735.007 3.502 3.502 3.5 9.215-.007 12.72L49.337 24.365z"/></g><defs><clipPath id="a"><rect width="72" height="72" fill="#fff" rx="4"/></clipPath></defs></svg>