<?xml version="1.0" encoding="utf-8"?>
<!-- Uploaded to: SVG Repo, www.svgrepo.com, Generator: SVG Repo Mixer Tools -->
<svg width="800px" height="800px" viewBox="0 0 1024 1024" class="icon"  version="1.1" xmlns="http://www.w3.org/2000/svg"><path d="M64 174.613h896v659.928H64z" fill="#2577FF" /><path d="M843.293 819.269h-632.47l90.353-76.402h466.823z" fill="" /><path d="M828.234 849.387H195.765l90.352-86.663H752.94z" fill="#2577FF" /><path d="M914.822 174.613h45.177v659.928h-45.177zM210.823 294.688h632.47v355.028h-632.47z" fill="" /><path d="M195.765 279.629h632.47v355.028h-632.47z" fill="#FFFFFF" /><path d="M705.881 474.46m-64 0a64 64 0 1 0 128 0 64 64 0 1 0-128 0Z" fill="#152B3C" /><path d="M742.886 422.396c7.452 10.462 11.936 23.179 11.936 37.003 0 35.347-28.653 64-64 64-13.824 0-26.541-4.485-37.004-11.938 11.602 16.29 30.542 26.996 52.062 26.996 35.347 0 64-28.653 64-64 0.001-21.519-10.706-40.458-26.994-52.061z" fill="" /><path d="M314.353 474.46m-64 0a64 64 0 1 0 128 0 64 64 0 1 0-128 0Z" fill="#152B3C" /><path d="M314.351 410.459c-2.579 0-5.03 0.463-7.529 0.76 31.756 3.769 56.472 30.475 56.472 63.24 0 32.768-24.716 59.475-56.472 63.243 2.5 0.296 4.95 0.757 7.529 0.757 35.347 0 64.002-28.653 64.002-64s-28.654-64-64.002-64z" fill="" /><path d="M687.058 798.225m-18.824 0a18.824 18.824 0 1 0 37.648 0 18.824 18.824 0 1 0-37.648 0Z" fill="#FFFFFF" /><path d="M370.823 798.225m-18.823 0a18.823 18.823 0 1 0 37.646 0 18.823 18.823 0 1 0-37.646 0Z" fill="#FFFFFF" /><path d="M395.293 432.158h233.412v86.815H395.293zM191.998 328.14h640.005v29.867H191.998z" fill="#152B3C" /></svg>